<?xml version="1.0" encoding="UTF-8" standalone="no"?>
<!-- Created with Inkscape (http://www.inkscape.org/) -->

<svg
   xmlns:dc="http://purl.org/dc/elements/1.1/"
   xmlns:cc="http://creativecommons.org/ns#"
   xmlns:rdf="http://www.w3.org/1999/02/22-rdf-syntax-ns#"
   xmlns:svg="http://www.w3.org/2000/svg"
   xmlns="http://www.w3.org/2000/svg"
   xmlns:xlink="http://www.w3.org/1999/xlink"
   xmlns:sodipodi="http://sodipodi.sourceforge.net/DTD/sodipodi-0.dtd"
   xmlns:inkscape="http://www.inkscape.org/namespaces/inkscape"
   width="320"
   height="380"
   viewBox="0 0 320 380.00001"
   id="svg2"
   version="1.1"
   inkscape:version="0.91 r13725"
   sodipodi:docname="chkras-map.svg">
  <title
     id="title5749">Chakras in human body</title>
  <defs
     id="defs4">
    <linearGradient
       inkscape:collect="always"
       id="linearGradient5741">
      <stop
         style="stop-color:#d80000;stop-opacity:1"
         offset="0"
         id="stop5743" />
      <stop
         style="stop-color:#8c0000;stop-opacity:1"
         offset="1"
         id="stop5745" />
    </linearGradient>
    <linearGradient
       inkscape:collect="always"
       id="linearGradient5733">
      <stop
         style="stop-color:#ff7f2a;stop-opacity:1;"
         offset="0"
         id="stop5735" />
      <stop
         style="stop-color:#de5800;stop-opacity:1"
         offset="1"
         id="stop5737" />
    </linearGradient>
    <linearGradient
       inkscape:collect="always"
       id="linearGradient5723">
      <stop
         style="stop-color:#ffff64;stop-opacity:1"
         offset="0"
         id="stop5725" />
      <stop
         id="stop5731"
         offset="0.80000001"
         style="stop-color:#f1e714;stop-opacity:1" />
      <stop
         style="stop-color:#d4c500;stop-opacity:1"
         offset="1"
         id="stop5727" />
    </linearGradient>
    <linearGradient
       inkscape:collect="always"
       id="linearGradient5715">
      <stop
         style="stop-color:#87de87;stop-opacity:1;"
         offset="0"
         id="stop5717" />
      <stop
         style="stop-color:#45cc45;stop-opacity:1"
         offset="1"
         id="stop5719" />
    </linearGradient>
    <linearGradient
       inkscape:collect="always"
       id="linearGradient5707">
      <stop
         style="stop-color:#8fefff;stop-opacity:1"
         offset="0"
         id="stop5709" />
      <stop
         style="stop-color:#18a4ff;stop-opacity:1"
         offset="1"
         id="stop5711" />
    </linearGradient>
    <linearGradient
       inkscape:collect="always"
       id="linearGradient5697">
      <stop
         style="stop-color:#9249ff;stop-opacity:1"
         offset="0"
         id="stop5699" />
      <stop
         style="stop-color:#6803ff;stop-opacity:1"
         offset="1"
         id="stop5701" />
    </linearGradient>
    <linearGradient
       inkscape:collect="always"
       id="linearGradient4247">
      <stop
         style="stop-color:#ffcbf2;stop-opacity:1"
         offset="0"
         id="stop4249" />
      <stop
         style="stop-color:#dd55ff;stop-opacity:1"
         offset="1"
         id="stop4251" />
    </linearGradient>
    <radialGradient
       inkscape:collect="always"
       xlink:href="#linearGradient4247"
       id="radialGradient4253"
       cx="162.05357"
       cy="47.339287"
       fx="162.05357"
       fy="47.339287"
       r="41.482143"
       gradientUnits="userSpaceOnUse"
       gradientTransform="translate(0,-11.785714)" />
    <radialGradient
       inkscape:collect="always"
       xlink:href="#linearGradient5697"
       id="radialGradient5703"
       cx="162.8877"
       cy="78.498047"
       fx="162.8877"
       fy="78.498047"
       r="21.049805"
       gradientTransform="matrix(1,0,0,0.67186266,0,13.972426)"
       gradientUnits="userSpaceOnUse" />
    <radialGradient
       inkscape:collect="always"
       xlink:href="#linearGradient5707"
       id="radialGradient5713"
       cx="162.76083"
       cy="147.12494"
       fx="162.76083"
       fy="147.12494"
       r="20.886751"
       gradientUnits="userSpaceOnUse"
       gradientTransform="translate(0,-13.928571)" />
    <radialGradient
       inkscape:collect="always"
       xlink:href="#linearGradient5715"
       id="radialGradient5721"
       cx="162.76083"
       cy="193.97076"
       fx="162.76083"
       fy="193.97076"
       r="20.175053"
       gradientUnits="userSpaceOnUse"
       gradientTransform="translate(0,-11.785714)" />
    <radialGradient
       inkscape:collect="always"
       xlink:href="#linearGradient5723"
       id="radialGradient5729"
       cx="162.76083"
       cy="243.84705"
       fx="162.76083"
       fy="243.84705"
       r="20.629601"
       gradientUnits="userSpaceOnUse"
       gradientTransform="translate(0,-11.785714)" />
    <radialGradient
       inkscape:collect="always"
       xlink:href="#linearGradient5733"
       id="radialGradient5739"
       cx="162.76083"
       cy="291.57675"
       fx="162.76083"
       fy="291.57675"
       r="22.343966"
       gradientTransform="matrix(1,0,0,0.86761828,0,26.813717)"
       gradientUnits="userSpaceOnUse" />
    <radialGradient
       inkscape:collect="always"
       xlink:href="#linearGradient5741"
       id="radialGradient5747"
       cx="162.76083"
       cy="340.06406"
       fx="162.76083"
       fy="340.06406"
       r="17.294542"
       gradientUnits="userSpaceOnUse"
       gradientTransform="translate(0,-11.785714)" />
  </defs>
  <sodipodi:namedview
     id="base"
     pagecolor="#ffffff"
     bordercolor="#666666"
     borderopacity="1.0"
     inkscape:pageopacity="0.0"
     inkscape:pageshadow="2"
     inkscape:zoom="0.98994949"
     inkscape:cx="193.83022"
     inkscape:cy="178.60629"
     inkscape:document-units="px"
     inkscape:current-layer="layer2"
     showgrid="false"
     inkscape:snap-page="false"
     fit-margin-top="0"
     fit-margin-left="0"
     fit-margin-bottom="0"
     fit-margin-right="0"
     units="px"
     inkscape:object-paths="true"
     inkscape:snap-smooth-nodes="false"
     inkscape:object-nodes="true"
     inkscape:snap-nodes="true"
     inkscape:snap-global="false"
     showguides="false"
     inkscape:window-width="1280"
     inkscape:window-height="946"
     inkscape:window-x="0"
     inkscape:window-y="29"
     inkscape:window-maximized="1" />
  <metadata
     id="metadata7">
    <rdf:RDF>
      <cc:Work
         rdf:about="">
        <dc:format>image/svg+xml</dc:format>
        <dc:type
           rdf:resource="http://purl.org/dc/dcmitype/StillImage" />
        <dc:title>Chakras in human body</dc:title>
        <dc:date>2016/06/17</dc:date>
        <dc:creator>
          <cc:Agent>
            <dc:title>mpan (&lt;https://mpan.pl/&gt;)</dc:title>
          </cc:Agent>
        </dc:creator>
        <dc:rights>
          <cc:Agent>
            <dc:title>mpan (&lt;https://mpan.pl/&gt;)</dc:title>
          </cc:Agent>
        </dc:rights>
        <dc:publisher>
          <cc:Agent>
            <dc:title>mpan (&lt;https://mpan.pl/&gt;)</dc:title>
          </cc:Agent>
        </dc:publisher>
        <dc:subject>
          <rdf:Bag>
            <rdf:li>chakras</rdf:li>
          </rdf:Bag>
        </dc:subject>
        <dc:description>A map of chakras in human body.</dc:description>
        <cc:license
           rdf:resource="http://creativecommons.org/publicdomain/zero/1.0/" />
      </cc:Work>
      <cc:License
         rdf:about="http://creativecommons.org/publicdomain/zero/1.0/">
        <cc:permits
           rdf:resource="http://creativecommons.org/ns#Reproduction" />
        <cc:permits
           rdf:resource="http://creativecommons.org/ns#Distribution" />
        <cc:permits
           rdf:resource="http://creativecommons.org/ns#DerivativeWorks" />
      </cc:License>
    </rdf:RDF>
  </metadata>
  <g
     inkscape:groupmode="layer"
     id="layer2"
     inkscape:label="Chakras"
     transform="translate(-2.7853308,11.841129)">
    <circle
       style="opacity:1;fill:url(#radialGradient4253);fill-opacity:1;fill-rule:nonzero;stroke:none;stroke-width:1;stroke-linecap:round;stroke-linejoin:round;stroke-miterlimit:4;stroke-dasharray:none;stroke-dashoffset:0;stroke-opacity:1"
       id="path4222"
       cx="162.05357"
       cy="35.553574"
       r="40.982143" />
    <path
       sodipodi:nodetypes="cssssssssssssssssssssssssssssssccccssssssssssssssssssssssssssssssc"
       inkscape:connector-curvature="0"
       id="path4218"
       d="m 60.735422,328.65722 c 0,0 13.005714,-11.55362 18.372149,-14.71035 5.366436,-3.15673 14.836616,-6.25032 21.718279,-7.38674 6.88167,-1.13642 13.45986,-0.38153 23.72772,-0.29223 10.26786,0.0893 33.125,-3.30357 38.48214,-6.07143 5.35715,-2.76785 13.48845,-16.86985 17.46592,-20.21598 3.97748,-3.34613 7.89182,-4.48255 11.93243,-4.73509 4.04061,-0.25254 8.9651,4.73509 14.52094,7.51301 5.55584,2.77792 10.2278,2.84105 18.24588,1.70463 8.01809,-1.13646 14.96289,-1.45213 18.30902,0.0631 3.34613,1.51522 6.88166,4.79822 9.72272,4.79822 2.84105,0 6.06091,2.71479 7.82868,4.60882 1.76777,1.89404 1.6415,4.60882 0.75761,5.36644 -0.88388,0.75761 -1.10462,0.27181 -5.56891,-0.97819 -4.46429,-1.25 -8.21429,-0.71428 -14.28571,0.53572 -6.07143,1.25 -6.25,2.5 -11.07143,5.17857 -4.82143,2.67857 -9.82143,4.46428 -17.32143,7.67857 -7.5,3.21429 -18.57143,5.71429 -28.75,9.46429 -10.17857,3.75 -61.60714,24.28571 -71.96429,25.89285 C 102.5,348.67858 86.25,352.42858 80,353.67858 c -6.25,1.25 -15,1.07142 -21.964286,1.78571 -6.964285,0.71429 -7.5,0.53571 -10.535714,-0.89286 -3.035714,-1.42857 -7.142857,-1.96428 -10.178571,-3.03571 -3.035715,-1.07143 -5.714286,-3.75 -10.714286,-11.60714 -5,-7.85715 4.821428,-18.21429 10.357143,-24.46429 5.535714,-6.25 16.964286,-11.07143 24.107143,-15 7.142857,-3.92857 33.571428,-16.60714 38.928571,-18.92857 5.35714,-2.32143 11.96429,-5.17857 13.92857,-11.60714 1.96429,-6.42858 0,-11.78572 0.53572,-18.03572 0.53571,-6.25 1.96428,-7.32143 2.85714,-14.82143 0.89286,-7.5 -0.89286,-3.75 -1.07143,-12.85714 -0.17857,-9.10714 -3.25376,-22.51609 -6.82519,-33.94466 l 0,-6.09998 105.23345,-1.51786 0,5.84939 c -3.57143,11.42857 -6.64662,24.83752 -6.82519,33.94466 -0.17857,9.10714 -1.96429,5.35714 -1.07143,12.85714 0.89286,7.5 2.32143,8.57143 2.85714,14.82143 0.53572,6.25 -1.42857,11.60714 0.53572,18.03572 1.96428,6.42857 8.57143,9.28571 13.92857,11.60714 5.35715,2.32143 31.78572,15 38.92858,18.92857 7.14285,3.92857 18.57142,8.75 24.10714,15 5.53571,6.25 15.35714,16.60714 10.35714,24.46429 -5,7.85714 -7.67857,10.53571 -10.71428,11.60714 -3.03572,1.07143 -7.14286,1.60714 -10.17858,3.03571 -3.03571,1.42857 -3.57142,1.60715 -10.53571,0.89286 -6.96429,-0.71429 -15.71429,-0.53571 -21.96429,-1.78571 -6.25,-1.25 -22.5,-5 -32.85714,-6.60715 -10.35715,-1.60714 -61.78572,-22.14285 -71.96429,-25.89285 -10.17857,-3.75 -21.25,-6.25 -28.75,-9.46429 -7.5,-3.21429 -12.499994,-5 -17.321424,-7.67857 -4.82143,-2.67857 -5,-3.92857 -11.07143,-5.17857 -6.07142,-1.25 -9.82142,-1.78572 -14.28571,-0.53572 -4.46429,1.25 -4.68503,1.7358 -5.56891,0.97819 -0.88389,-0.75762 -1.01016,-3.4724 0.75761,-5.36644 1.76777,-1.89403 4.98763,-4.60882 7.82868,-4.60882 2.84106,0 6.37659,-3.283 9.72272,-4.79822 3.34613,-1.51523 10.29093,-1.19956 18.30902,-0.0631 8.018074,1.13642 12.690034,1.07329 18.245874,-1.70463 5.55584,-2.77792 10.48033,-7.76555 14.52094,-7.51301 4.04061,0.25254 7.95495,1.38896 11.93243,4.73509 3.97747,3.34613 12.10877,17.44813 17.46592,20.21598 5.35714,2.76786 28.21428,6.16072 38.48214,6.07143 10.26786,-0.0893 16.84605,-0.84419 23.72772,0.29223 6.88167,1.13642 16.35185,4.23001 21.71828,7.38674 5.36644,3.15673 18.37215,14.71035 18.37215,14.71035"
       style="opacity:1;fill:#ffffff;fill-opacity:1;fill-rule:nonzero;stroke:none;stroke-width:1;stroke-linecap:round;stroke-linejoin:round;stroke-miterlimit:4;stroke-dasharray:none;stroke-dashoffset:0;stroke-opacity:1" />
    <path
       style="opacity:1;fill:none;fill-opacity:1;fill-rule:nonzero;stroke:#000000;stroke-width:1;stroke-linecap:round;stroke-linejoin:round;stroke-miterlimit:4;stroke-dasharray:none;stroke-dashoffset:0;stroke-opacity:1"
       d="m 214.65826,182.65179 0,5.84939 c -3.57143,11.42857 -6.64662,24.83752 -6.82519,33.94466 -0.17857,9.10714 -1.96429,5.35714 -1.07143,12.85714 0.89286,7.5 2.32143,8.57143 2.85714,14.82143 0.53572,6.25 -1.42857,11.60714 0.53572,18.03572 1.96428,6.42857 16.17724,13.23708 21.53438,15.55851 m 30.61884,14.73895 c 7.14285,3.92857 19.27535,8.98825 24.81107,15.23825 5.53571,6.25 15.35714,16.60714 10.35714,24.46429 -5,7.85714 -7.67857,10.53571 -10.71428,11.60714 -3.03572,1.07143 -7.14286,1.60714 -10.17858,3.03571 -3.03571,1.42857 -3.57142,1.60715 -10.53571,0.89286 -6.96429,-0.71429 -15.71429,-0.53571 -21.96429,-1.78571 -6.25,-1.25 -22.5,-5 -32.85714,-6.60715 -10.35715,-1.60714 -36.49552,-12.58658 -46.67409,-16.33658 m -62.76952,-22.55251 c -7.500003,-3.21429 -3.770674,-1.46805 -8.592104,-4.14662 -4.82143,-2.67857 -5,-3.92857 -11.07143,-5.17857 -6.07142,-1.25 -9.82142,-1.78572 -14.28571,-0.53572 -4.46429,1.25 -4.68503,1.7358 -5.56891,0.97819 -0.88389,-0.75762 -1.01016,-3.4724 0.75761,-5.36644 1.76777,-1.89403 4.98763,-4.60882 7.82868,-4.60882 2.84106,0 6.37659,-3.283 9.72272,-4.79822 3.34613,-1.51523 10.29093,-1.19956 18.30902,-0.0631 8.018074,1.13642 12.690034,1.07329 18.245874,-1.70463 5.55584,-2.77792 10.48033,-7.76555 14.52094,-7.51301 4.04061,0.25254 7.95495,1.38896 11.93243,4.73509 3.97747,3.34613 12.40235,15.35543 17.01949,19.23384 1.11607,0.9375 1.83848,1.59156 3.219,2.27993 m 64.21928,5.79006 c 6.88167,1.13642 11.56986,3.50582 16.93629,6.66255 5.36644,3.15673 18.37215,14.71035 18.37215,14.71035"
       id="path4214"
       inkscape:connector-curvature="0"
       sodipodi:nodetypes="ccssssccsssssssccssssssssssssccsc" />
    <path
       style="opacity:1;fill:none;fill-opacity:1;fill-rule:nonzero;stroke:#000000;stroke-width:1;stroke-linecap:round;stroke-linejoin:round;stroke-miterlimit:4;stroke-dasharray:none;stroke-dashoffset:0;stroke-opacity:1"
       d="m 60.735422,328.65722 c 0,0 13.005714,-11.55362 18.372149,-14.71035 5.366436,-3.15673 14.836616,-6.25032 21.718279,-7.38674 6.88167,-1.13642 13.45986,-0.38153 23.72772,-0.29223 10.26786,0.0893 33.125,-3.30357 38.48214,-6.07143 5.35715,-2.76785 13.48845,-16.86985 17.46592,-20.21598 3.97748,-3.34613 7.89182,-4.48255 11.93243,-4.73509 4.04061,-0.25254 8.9651,4.73509 14.52094,7.51301 5.55584,2.77792 10.2278,2.84105 18.24588,1.70463 8.01809,-1.13646 14.96289,-1.45213 18.30902,0.0631 3.34613,1.51522 6.88166,4.79822 9.72272,4.79822 2.84105,0 6.06091,2.71479 7.82868,4.60882 1.76777,1.89404 1.6415,4.60882 0.75761,5.36644 -0.88388,0.75761 -1.10462,0.27181 -5.56891,-0.97819 -4.46429,-1.25 -8.21429,-0.71428 -14.28571,0.53572 -6.07143,1.25 -6.25,2.5 -11.07143,5.17857 -4.82143,2.67857 -9.82143,4.46428 -17.32143,7.67857 -7.5,3.21429 -18.57143,5.71429 -28.75,9.46429 -10.17857,3.75 -61.60714,24.28571 -71.96429,25.89285 C 102.5,348.67858 86.25,352.42858 80,353.67858 c -6.25,1.25 -15,1.07142 -21.964286,1.78571 -6.964285,0.71429 -7.5,0.53571 -10.535714,-0.89286 -3.035714,-1.42857 -7.142857,-1.96428 -10.178571,-3.03571 -3.035715,-1.07143 -5.714286,-3.75 -10.714286,-11.60714 -5,-7.85715 4.821428,-18.21429 10.357143,-24.46429 5.535714,-6.25 23.563952,-14.9372 30.706809,-18.86577 m 30.279888,-14.14341 c 5.357137,-2.32143 14.013307,-6.09796 15.977587,-12.52653 1.96429,-6.42858 0,-11.78572 0.53572,-18.03572 0.53571,-6.25 1.96428,-7.32143 2.85714,-14.82143 0.89286,-7.5 -0.89286,-3.75 -1.07143,-12.85714 -0.17857,-9.10714 -3.25376,-22.51609 -6.82519,-33.94466 l 0,-6.09998 105.23345,-1.51786"
       id="path4204"
       inkscape:connector-curvature="0"
       sodipodi:nodetypes="cssssssssssssssssssssssssccssssccc" />
    <path
       style="opacity:1;fill:#ffffff;fill-opacity:1;fill-rule:nonzero;stroke:#000000;stroke-width:1;stroke-linecap:round;stroke-linejoin:round;stroke-miterlimit:4;stroke-dasharray:none;stroke-dashoffset:0;stroke-opacity:1"
       d="m 110.76133,187.79623 c -4.01523,7.04197 -8.97562,19.63235 -10.22562,23.0252 -1.25,3.39286 -2.857142,8.21429 -5.357142,11.60715 -2.5,3.39285 -3.392858,6.78571 -4.107143,10.35714 -0.714286,3.57143 -2.321429,8.39286 -5.357143,13.92857 -3.035714,5.53571 -13.214286,14.82143 -21.25,23.39286 -8.035714,8.57143 -13.080357,15.66964 -16.741072,23.39285 -3.660714,7.72322 -5.758928,11.42858 -6.517857,13.97322 -0.758928,2.54464 0,6.07143 0.758929,8.30357 0.758928,2.23214 0.9375,6.74107 0.491071,8.30357 -0.446428,1.5625 -1.607143,5.625 -1.607143,8.39286 0,2.76786 0.3125,2.58928 -0.535714,3.4375 -0.848214,0.84821 -2.053571,0.44643 -2.946428,-0.53572 -0.892858,-0.98214 -1.696426,-3.03571 -1.651786,-4.41964 0.04464,-1.38393 0.223214,-5.08928 0.223214,-6.65178 0,-1.5625 -1.785714,-4.55358 -2.991071,-4.55358 -1.205357,0 -1.696429,0.84822 -2.410715,2.45536 -0.714285,1.60714 -0.3125,4.55357 0.625,7.85714 0.9375,3.30358 4.955358,5.66965 5.535715,6.29465 0.580357,0.625 0.401785,1.78571 -0.357143,2.00893 -0.758929,0.22321 -2.410714,0.3125 -5.982143,-1.65179 -3.571429,-1.96429 -6.026786,-5.9375 -6.026786,-5.9375 l -0.446428,-0.84821 c 0,0 -0.133929,1.33928 -0.133929,2.00892 0,0.66965 0.178572,3.61608 0.758929,6.60715 0.580357,2.99107 1.785718,8.39285 1.696428,10.04464 -0.08929,1.65179 -1.25,2.0982 -1.830357,2.1875 -0.580357,0.0893 -1.607143,-1.96429 -2.901786,-4.59821 -1.294643,-2.63393 -3.571428,-10.08929 -3.571428,-10.08929 l -0.178572,-1.20536 c 0,0 -0.312503,1.29465 -0.357143,2.05357 -0.04464,0.75893 -0.267857,3.21429 0.357143,6.02679 0.625,2.8125 0.9375,6.02679 0.491072,6.60714 -0.446429,0.58036 -1.830357,0.26786 -2.544643,-0.26785 -0.714286,-0.53572 -2.455357,-5 -3.080357,-7.00893 -0.625,-2.00893 -0.357143,-12.27679 -0.357143,-12.27679 l 0.08929,-1.60714 c 0,0 -0.848215,1.51786 -1.383929,2.54464 -0.535714,1.02679 -1.5178571,2.67857 -2.9910714,4.95536 -1.4732143,2.27678 -3.9732143,2.27678 -4.1517857,2.00893 C 3.6160714,337.65179 2.5,337.25 4.2857143,333.85715 6.0714286,330.46429 10.535714,320.46429 13.035714,316 c 2.5,-4.46428 6.25,-7.32142 10.357143,-13.21428 C 27.5,296.89286 32.678571,289.39286 38.75,276.71429 c 6.071429,-12.67857 7.321429,-18.75 11.428572,-28.03571 4.107142,-9.28572 10,-18.92858 16.428571,-27.32143 6.428571,-8.39286 9.464286,-19.64286 12.142857,-28.39286 2.678572,-8.75 2.321429,-16.42857 4.821429,-28.21429 2.5,-11.78571 4.464285,-18.57142 10.357143,-25.53571 5.892857,-6.96429 17.499998,-6.78571 23.392858,-6.60714 5.89286,0.17857 6.96428,-2.14286 16.07143,-7.5 9.10714,-5.35715 8.43266,-14.59659 7.36123,-19.41802 0.14733,0.30406 42.28617,-1.33815 42.28617,-1.33815 -1.07143,4.82143 -1.19408,14.13632 7.91306,19.49347 9.10715,5.35714 10.17857,7.67857 16.07143,7.5 5.89286,-0.17857 17.5,-0.35715 23.39286,6.60714 5.89285,6.96429 7.85714,13.75 10.35714,25.53571 2.5,11.78572 2.14286,19.46429 4.82143,28.21429 2.67857,8.75 5.71428,20 12.14286,28.39286 6.42857,8.39285 12.32142,18.03571 16.42857,27.32143 4.10714,9.28571 5.35714,15.35714 11.42857,28.03571 6.07143,12.67857 11.25,20.17857 15.35714,26.07143 4.10715,5.89286 7.85715,8.75 10.35715,13.21428 2.5,4.46429 6.96428,14.46429 8.74999,17.85715 1.78572,3.39285 0.66965,3.79464 0.49108,4.0625 -0.17858,0.26785 -2.67858,0.26785 -4.15179,-2.00893 -1.47321,-2.27679 -2.45536,-3.92857 -2.99107,-4.95536 -0.53571,-1.02678 -1.38393,-2.54464 -1.38393,-2.54464 l 0.0893,1.60714 c 0,0 0.26786,10.26786 -0.35714,12.27679 -0.625,2.00893 -2.36607,6.47321 -3.08036,7.00893 -0.71429,0.53571 -2.09821,0.84821 -2.54464,0.26785 -0.44643,-0.58035 -0.13393,-3.79464 0.49107,-6.60714 0.625,-2.8125 0.40178,-5.26786 0.35714,-6.02679 -0.0446,-0.75892 -0.35714,-2.05357 -0.35714,-2.05357 l -0.17857,1.20536 c 0,0 -2.27679,7.45536 -3.57143,10.08929 -1.29464,2.63392 -2.32143,4.6875 -2.90179,4.59821 -0.58035,-0.0893 -1.74107,-0.53571 -1.83035,-2.1875 -0.0893,-1.65179 1.11607,-7.05357 1.69642,-10.04464 0.58036,-2.99107 0.75893,-5.9375 0.75893,-6.60715 0,-0.66964 -0.13393,-2.00892 -0.13393,-2.00892 l -0.44642,0.84821 c 0,0 -2.45536,3.97321 -6.02679,5.9375 -3.57143,1.96429 -5.22321,1.875 -5.98214,1.65179 -0.75893,-0.22322 -0.9375,-1.38393 -0.35715,-2.00893 0.58036,-0.625 4.59822,-2.99107 5.53572,-6.29465 0.9375,-3.30357 1.33928,-6.25 0.625,-7.85714 -0.71429,-1.60714 -1.20536,-2.45536 -2.41072,-2.45536 -1.20535,0 -2.99107,2.99108 -2.99107,4.55358 0,1.5625 0.17857,5.26785 0.22322,6.65178 0.0446,1.38393 -0.75893,3.4375 -1.65179,4.41964 -0.89286,0.98215 -2.09821,1.38393 -2.94643,0.53572 -0.84821,-0.84822 -0.53571,-0.66964 -0.53571,-3.4375 0,-2.76786 -1.16072,-6.83036 -1.60714,-8.39286 -0.44643,-1.5625 -0.26786,-6.07143 0.49107,-8.30357 0.75893,-2.23214 1.51785,-5.75893 0.75893,-8.30357 -0.75893,-2.54464 -2.85715,-6.25 -6.51786,-13.97322 -3.66073,-7.72321 -8.70537,-14.82142 -16.74108,-23.39285 -8.03572,-8.57143 -18.21429,-17.85715 -21.25,-23.39286 -3.03572,-5.53571 -4.64286,-10.35714 -5.35715,-13.92857 -0.71428,-3.57143 -1.60714,-6.96429 -4.10714,-10.35714 -2.5,-3.39286 -4.10714,-8.21429 -5.35714,-11.60715 -1.25,-3.39285 -6.21039,-15.98323 -10.22562,-23.0252"
       id="path3402"
       inkscape:connector-curvature="0"
       sodipodi:nodetypes="cssssssssssscssccsssssccscsssccscssssssssssssssssssccssssssssssscssccsssssccscsssccscssssssssssssssssssc" />
    <path
       style="opacity:1;fill:#ffffff;fill-opacity:1;fill-rule:nonzero;stroke:#000000;stroke-width:1;stroke-linecap:round;stroke-linejoin:round;stroke-miterlimit:4;stroke-dasharray:none;stroke-dashoffset:0;stroke-opacity:1"
       d="m 144.95689,38.86966 c -5.05076,4.04061 -10.73287,12.879445 -11.36422,18.182745 -0.63134,5.303301 0.25254,11.743024 0.25254,11.743024 l 1.38896,2.777919 c 0,0 -2.52538,-1.641498 -3.78807,-1.388959 -1.26269,0.252538 -1.51523,4.419417 -1.01015,6.565991 0.50507,2.146574 2.0203,3.788072 2.52538,7.323606 0.50508,3.535534 0.37881,6.81853 2.39911,8.5863 2.02031,1.76776 2.14658,0.25253 3.03046,1.26269 0.88388,1.01015 -0.25254,1.13642 0.37881,4.92449 0.63134,3.788074 1.64149,7.828684 5.6821,12.248104 4.04061,4.41942 9.35063,4.96782 17.69363,4.96782 8.34301,0 12.58161,-0.5484 16.62222,-4.96782 4.04061,-4.41942 5.05076,-8.46003 5.6821,-12.248104 0.63135,-3.78807 -0.50507,-3.91434 0.37881,-4.92449 0.88388,-1.01016 1.01015,0.50507 3.03046,-1.26269 2.0203,-1.76777 1.89403,-5.050766 2.39911,-8.5863 0.50508,-3.535534 2.02031,-5.177032 2.52538,-7.323606 0.50508,-2.146574 0.25254,-6.313453 -1.01015,-6.565991 -1.26269,-0.252539 -3.78807,1.388959 -3.78807,1.388959 l 1.38896,-2.777919 c 0,0 0.88388,-6.439723 0.25254,-11.743024 -0.63135,-5.3033 -6.31346,-14.142135 -11.36422,-18.182745 -5.05076,-4.040611 -9.24237,-6.060916 -16.65285,-6.060916 -7.41047,0 -11.60208,2.020305 -16.65284,6.060916 z"
       id="path4206"
       inkscape:connector-curvature="0"
       sodipodi:nodetypes="ssccssssssszsssssssccsszs" />
    <path
       style="opacity:1;fill:url(#radialGradient5703);fill-opacity:1;fill-rule:nonzero;stroke:none;stroke-width:1;stroke-linecap:round;stroke-linejoin:round;stroke-miterlimit:4;stroke-dasharray:none;stroke-dashoffset:0;stroke-opacity:1"
       d="m 159.79297,52.569755 a 18.498419,18.498419 0 0 0 -17.95508,14.146484 18.498419,18.498419 0 0 0 17.95508,14.138672 18.498419,18.498419 0 0 0 1.86914,-0.111328 14.142136,14.142136 0 0 0 1.66601,0.111328 14.142136,14.142136 0 0 0 1.26758,-0.06836 18.498419,18.498419 0 0 0 1.38477,0.06836 18.498419,18.498419 0 0 0 17.95703,-14.144531 18.498419,18.498419 0 0 0 -17.95703,-14.140625 18.498419,18.498419 0 0 0 -1.23047,0.07227 14.142136,14.142136 0 0 0 -1.42188,-0.07227 14.142136,14.142136 0 0 0 -1.7246,0.123047 18.498419,18.498419 0 0 0 -1.81055,-0.123047 z"
       id="path4224"
       inkscape:connector-curvature="0" />
    <path
       sodipodi:type="star"
       style="opacity:1;fill:url(#radialGradient5713);fill-opacity:1;fill-rule:nonzero;stroke:none;stroke-width:1;stroke-linecap:round;stroke-linejoin:round;stroke-miterlimit:4;stroke-dasharray:none;stroke-dashoffset:0;stroke-opacity:1"
       id="path4237"
       sodipodi:sides="16"
       sodipodi:cx="162.76083"
       sodipodi:cy="133.19636"
       sodipodi:r1="20.886751"
       sodipodi:r2="18.088457"
       sodipodi:arg1="0.78539816"
       sodipodi:arg2="0.9817477"
       inkscape:flatsided="false"
       inkscape:rounded="0"
       inkscape:randomized="0"
       d="m 177.53,147.96553 -4.71976,0.27084 -2.05639,4.25684 -4.46413,-1.55595 -3.52889,3.14586 -3.52888,-3.14586 -4.46413,1.55595 -2.05639,-4.25684 -4.71976,-0.27084 -0.27084,-4.71976 -4.25684,-2.05639 1.55595,-4.46413 -3.14586,-3.52888 3.14586,-3.52889 -1.55595,-4.46413 4.25684,-2.05639 0.27084,-4.71976 4.71976,-0.27084 2.05639,-4.25684 4.46413,1.55595 3.52888,-3.14586 3.52889,3.14586 4.46413,-1.55595 2.05639,4.25684 4.71976,0.27084 0.27084,4.71976 4.25684,2.05639 -1.55595,4.46413 3.14585,3.52889 -3.14585,3.52888 1.55595,4.46413 -4.25684,2.05639 z" />
    <path
       d="m 177.53,196.95421 -5.72494,0.8959 -3.63834,4.50999 -5.40589,-2.0866 -5.40589,2.0866 -3.63833,-4.50999 -5.72494,-0.8959 -0.8959,-5.72494 -4.50999,-3.63834 2.0866,-5.40589 -2.0866,-5.40589 4.50999,-3.63833 0.8959,-5.72494 5.72493,-0.8959 3.63834,-4.50999 5.40589,2.0866 5.40589,-2.0866 3.63834,4.50999 5.72494,0.8959 0.8959,5.72493 4.50999,3.63834 -2.0866,5.40589 2.0866,5.40589 -4.50999,3.63834 z"
       inkscape:randomized="0"
       inkscape:rounded="0"
       inkscape:flatsided="false"
       sodipodi:arg2="1.0471975"
       sodipodi:arg1="0.78539816"
       sodipodi:r2="18.088457"
       sodipodi:r1="20.886751"
       sodipodi:cy="182.18505"
       sodipodi:cx="162.76083"
       sodipodi:sides="12"
       id="path4239"
       style="opacity:1;fill:url(#radialGradient5721);fill-opacity:1;fill-rule:nonzero;stroke:none;stroke-width:1;stroke-linecap:round;stroke-linejoin:round;stroke-miterlimit:4;stroke-dasharray:none;stroke-dashoffset:0;stroke-opacity:1"
       sodipodi:type="star" />
    <path
       sodipodi:type="star"
       style="opacity:1;fill:url(#radialGradient5729);fill-opacity:1;fill-rule:nonzero;stroke:none;stroke-width:1;stroke-linecap:round;stroke-linejoin:round;stroke-miterlimit:4;stroke-dasharray:none;stroke-dashoffset:0;stroke-opacity:1"
       id="path4241"
       sodipodi:sides="10"
       sodipodi:cx="162.76083"
       sodipodi:cy="232.06133"
       sodipodi:r1="20.886751"
       sodipodi:r2="18.088457"
       sodipodi:arg1="0.78539816"
       sodipodi:arg2="1.0995574"
       inkscape:flatsided="false"
       inkscape:rounded="0"
       inkscape:randomized="0"
       d="m 177.53,246.83049 -6.55718,1.34777 -4.94458,4.51267 -6.09706,-2.76385 -6.65273,0.74448 -3.30809,-5.81976 -5.81976,-3.30809 0.74448,-6.65273 -2.76385,-6.09706 4.51267,-4.94458 1.34777,-6.55718 6.55718,-1.34777 4.94458,-4.51267 6.09706,2.76385 6.65273,-0.74448 3.30808,5.81976 5.81977,3.30809 -0.74448,6.65273 2.76384,6.09706 -4.51266,4.94458 z" />
    <path
       d="m 173.99446,299.1059 -11.18615,-4.4125 -11.15781,4.48368 -1.77174,-11.89374 -9.46189,-7.42111 9.41441,-7.48124 1.69593,-11.90479 11.18615,4.4125 11.15781,-4.48369 1.77174,11.89375 9.46189,7.4211 -9.41442,7.48124 z"
       inkscape:randomized="0"
       inkscape:rounded="0"
       inkscape:flatsided="false"
       sodipodi:arg2="1.5676105"
       sodipodi:arg1="1.0440118"
       sodipodi:r2="14.902425"
       sodipodi:r1="22.344078"
       sodipodi:cy="279.79104"
       sodipodi:cx="162.76083"
       sodipodi:sides="6"
       id="path4243"
       style="opacity:1;fill:url(#radialGradient5739);fill-opacity:1;fill-rule:nonzero;stroke:none;stroke-width:1;stroke-linecap:round;stroke-linejoin:round;stroke-miterlimit:4;stroke-dasharray:none;stroke-dashoffset:0;stroke-opacity:1"
       sodipodi:type="star" />
    <path
       sodipodi:type="star"
       style="opacity:1;fill:url(#radialGradient5747);fill-opacity:1;fill-rule:nonzero;stroke:none;stroke-width:1;stroke-linecap:round;stroke-linejoin:round;stroke-miterlimit:4;stroke-dasharray:none;stroke-dashoffset:0;stroke-opacity:1"
       id="path4245"
       sodipodi:sides="4"
       sodipodi:cx="162.76083"
       sodipodi:cy="328.27834"
       sodipodi:r1="23.326361"
       sodipodi:r2="13.551372"
       sodipodi:arg1="0.73561787"
       sodipodi:arg2="1.5210161"
       inkscape:flatsided="false"
       inkscape:rounded="0"
       inkscape:randomized="0"
       d="m 180.05538,343.9314 -16.62023,-2.11846 -16.32736,3.75995 2.11846,-16.62023 -3.75996,-16.32736 16.62023,2.11847 16.32736,-3.75996 -2.11846,16.62023 z" />
  </g>
</svg>
